<?xml version="1.0" encoding="iso-8859-1"?>
<!-- Generator: Adobe Illustrator 18.0.0, SVG Export Plug-In . SVG Version: 6.00 Build 0)  -->
<!DOCTYPE svg PUBLIC "-//W3C//DTD SVG 1.1//EN" "http://www.w3.org/Graphics/SVG/1.1/DTD/svg11.dtd">
<svg version="1.1" id="_x31_" xmlns="http://www.w3.org/2000/svg" xmlns:xlink="http://www.w3.org/1999/xlink" x="0px" y="0px"
	 viewBox="0 0 512 512" style="enable-background:new 0 0 512 512;" xml:space="preserve">
<g>
	<rect style="fill:#F6B597;" width="512" height="512"/>
	<path style="opacity:0.15;fill:#040000;" d="M512,313.703V512H263.527l-63.232-63.233l-8.499-8.499l3.072-19.712l3.226,0.512
		l0.256-1.485l-4.966-0.768l-4.506-0.717l-22.426-41.727l2.816-18.023c-2.867-3.789-4.557-8.499-4.557-13.619
		c0-7.629,3.789-14.387,9.574-18.483l8.141-52.275H165.53v3.021h-10.342v-15.769h10.342v2.867h18.432l12.135-77.671
		c0.307-1.843,1.433-3.379,2.969-4.301c1.229-0.717,2.714-1.076,4.199-0.871l0.461,0.051l-1.383-16.589v-53.914
		c0-6.912,6.554-12.493,14.592-12.493h19.456V74.189c0-6.964,5.683-12.646,12.646-12.646h10.803l13.312,13.311l24.115,24.116
		l9.728,9.728L512,313.703z"/>
	<g>
		<path style="fill:#7F7F7F;" d="M258.451,284.103h-3.078c-1.863,0-3.387-1.524-3.387-3.387v-53.224
			c0-1.863,1.524-3.387,3.387-3.387h3.078c1.863,0,3.387,1.524,3.387,3.387v53.224C261.837,282.579,260.314,284.103,258.451,284.103
			z"/>
		<path style="fill:#7F7F7F;" d="M355.635,267.469v3.072c0,1.894-1.536,3.431-3.379,3.431H159.744c-1.843,0-3.379-1.536-3.379-3.431
			v-3.072c0-1.844,1.536-3.379,3.379-3.379h192.512C354.099,264.089,355.635,265.625,355.635,267.469z"/>
		<g>
			<rect x="155.187" y="261.223" style="fill:#4A4949;" width="10.342" height="15.769"/>
			<rect x="346.453" y="261.209" style="fill:#4A4949;" width="10.348" height="15.762"/>
		</g>
		<g>
			<g>
				<g>
					<polygon style="fill:#4A4949;" points="207.36,403.456 204.698,420.556 200.294,448.767 200.038,450.457 191.437,442.675 
						191.795,440.269 194.867,420.556 198.093,421.069 198.349,419.584 193.382,418.816 196.045,401.664 201.011,402.432 					"/>
					<path style="fill:#CCCCCC;" d="M243.763,193.842l-5.53,35.124l-5.53,35.123l-1.587,9.882l-23.193,147.097l-3.226-0.512
						l-6.349-0.973l-4.966-0.768l-4.506-0.717l-22.426-41.727l2.816-18.023l5.018-32.102l8.141-52.275l1.536-9.882l12.135-77.671
						c0.307-1.843,1.433-3.379,2.969-4.301c1.229-0.717,2.714-1.076,4.199-0.871l0.461,0.051l35.174,5.53
						C242.125,187.341,244.275,190.464,243.763,193.842z"/>
				</g>
				<path style="fill:#F0F0F0;" d="M233.933,193.842l-5.529,35.124l-5.581,35.123l-1.536,9.882L209.971,345.6l-0.819,5.376
					l-8.141,51.456l-2.663,17.152l-4.966-0.768l-4.506-0.717l-22.426-41.727l2.816-18.023l5.018-32.102l8.141-52.275l1.536-9.882
					l12.135-77.671c0.307-1.843,1.433-3.379,2.969-4.301l4.762,0.768l25.293,3.942C232.294,187.341,234.496,190.464,233.933,193.842
					z"/>
			</g>
			<g>
				<g>
					<polygon style="fill:#4A4949;" points="301.748,403.449 304.413,420.576 309.062,450.439 317.663,442.684 314.208,420.558 
						310.974,421.073 310.735,419.584 315.697,418.812 313.032,401.685 308.07,402.456 					"/>
					<path style="fill:#CCCCCC;" d="M265.325,193.821l35.854,227.252l3.234-0.496l6.322-0.992l4.962-0.772l4.539-0.717
						l22.383-41.716l-29.624-189.983c-0.294-1.838-1.452-3.345-2.959-4.263c-1.25-0.753-2.738-1.084-4.19-0.864l-35.67,5.55
						C266.979,187.315,264.81,190.458,265.325,193.821z"/>
				</g>
				<path style="fill:#F0F0F0;" d="M275.138,193.821l32.932,208.635l2.665,17.128l4.962-0.772l4.539-0.717l22.383-41.716
					l-29.624-189.983c-0.294-1.838-1.452-3.345-2.959-4.263l-30.047,4.686C276.774,187.315,274.605,190.458,275.138,193.821z"/>
			</g>
		</g>
		<path style="fill:#B8B8B8;" d="M273.152,74.189v48.794c0,6.963-5.683,12.646-12.647,12.646h-11.469
			c-6.963,0-12.646-5.684-12.646-12.646V74.189c0-6.964,5.683-12.646,12.646-12.646h11.469
			C267.469,61.542,273.152,67.225,273.152,74.189z"/>
		<path style="fill:#41647A;" d="M306.995,108.698c-0.922-4.557-4.71-8.295-9.728-9.728c-1.434-0.461-3.021-0.666-4.659-0.666
			h-75.674c-8.038,0-14.592,5.581-14.592,12.493v53.914l1.383,16.589l0.102,1.588l2.765,33.587c0,6.86,6.605,12.492,14.643,12.492
			h67.072c8.038,0,14.643-5.632,14.643-12.492l2.765-33.69l0.102-1.536h0.051l1.331-16.537v-53.914
			C307.2,110.08,307.149,109.363,306.995,108.698z"/>
		<circle style="opacity:0.07;fill:#040000;" cx="254.77" cy="164.16" r="18.718"/>
		<path style="fill:#B8B8B8;" d="M210.022,344.729c0,0.307,0,0.614-0.051,0.871c-0.051,1.894-0.307,3.686-0.819,5.376
			c-2.714,9.472-11.418,16.436-21.76,16.436c-7.424,0-14.029-3.533-18.125-9.063c-2.867-3.789-4.557-8.499-4.557-13.619
			c0-7.629,3.789-14.387,9.574-18.483c3.686-2.663,8.192-4.199,13.107-4.199C199.885,322.047,210.022,332.236,210.022,344.729z"/>
	</g>
	<polygon style="fill:none;" points="261.837,228.973 261.837,264.099 276.413,264.099 270.871,228.973 	"/>
	<polygon style="fill:none;" points="232.678,264.099 251.986,264.099 251.986,228.973 238.22,228.973 	"/>
	<path style="opacity:0.07;fill:#040000;" d="M346.452,261.209v2.889h-21.341l-12.116-77.702c-0.294-1.837-1.452-3.344-2.959-4.264
		c-1.249-0.753-2.737-1.084-4.188-0.863l1.366-16.537v-53.96c0-6.863-6.577-12.479-14.616-12.479H273.16V74.177
		c0-6.954-5.69-12.644-12.644-12.644H256v222.569h2.451c1.862,0,3.387-1.524,3.387-3.387v-6.766h16.129l23.212,147.122l3.234-0.496
		l4.649,29.863l8.6-7.755l-3.455-22.126l-3.234,0.515l-0.239-1.489l4.962-0.771l4.539-0.717l22.383-41.716l-15.972-102.428h19.805
		v3.021H356.8v-15.762H346.452z M261.837,264.099v-35.126h9.033l5.542,35.126H261.837z"/>
</g>
</svg>
