<?xml version="1.0" encoding="UTF-8" standalone="no"?>
<!-- Created with Inkscape (http://www.inkscape.org/) -->

<svg
   xmlns:dc="http://purl.org/dc/elements/1.1/"
   xmlns:cc="http://creativecommons.org/ns#"
   xmlns:rdf="http://www.w3.org/1999/02/22-rdf-syntax-ns#"
   xmlns:svg="http://www.w3.org/2000/svg"
   xmlns="http://www.w3.org/2000/svg"
   xmlns:sodipodi="http://sodipodi.sourceforge.net/DTD/sodipodi-0.dtd"
   xmlns:inkscape="http://www.inkscape.org/namespaces/inkscape"
   width="1500"
   height="200"
   id="svg2"
   version="1.1"
   inkscape:version="0.48.4 r9939"
   sodipodi:docname="drawing.svg">
  <defs
     id="defs4" />
  <sodipodi:namedview
     id="base"
     pagecolor="#ffffff"
     bordercolor="#666666"
     borderopacity="1.0"
     inkscape:pageopacity="0.0"
     inkscape:pageshadow="2"
     inkscape:zoom="0.49497475"
     inkscape:cx="903.97697"
     inkscape:cy="46.284113"
     inkscape:document-units="px"
     inkscape:current-layer="g2994"
     showgrid="false"
     inkscape:window-width="1535"
     inkscape:window-height="876"
     inkscape:window-x="65"
     inkscape:window-y="24"
     inkscape:window-maximized="1"
     width="150000px" />
  <metadata
     id="metadata7">
    <rdf:RDF>
      <cc:Work
         rdf:about="">
        <dc:format>image/svg+xml</dc:format>
        <dc:type
           rdf:resource="http://purl.org/dc/dcmitype/StillImage" />
        <dc:title></dc:title>
      </cc:Work>
    </rdf:RDF>
  </metadata>
  <g
     inkscape:label="Layer 1"
     inkscape:groupmode="layer"
     id="layer1"
     transform="translate(0,-852.3622)">
    <g
       id="g3085"
       transform="translate(-38.935286,-358.20925)">
      <g
         id="g2988"
         transform="matrix(1.3965258,0,0,1.3965258,-96.661909,-173.96086)">
        <g
           id="g2990"
           transform="matrix(1.4765674,0,0,1.4765674,-193.73484,-160.92998)">
          <g
             id="g2992">
            <g
               transform="translate(29.52321,419.82499)"
               id="g2994">
              <path
                 id="path2996"
                 d="m 317.27975,373.37975 h 28.8 l 19.6,69.7 h -20 l -3.2,-12.2 h -22 l -3.2,12.2 h -20 l 20,-69.7 z m 21.8,43.4 -6.9,-28.9 h -1.2 l -7.1,28.9 h 15.2 z"
                 class="st0"
                 inkscape:connector-curvature="0"
                 style="fill:#1a1a1a" />
              <path
                 id="path2998"
                 d="m 374.37975,373.37975 h 32.7 c 17.8,0 25.7,6.1 25.7,23.2 v 4.6 c 0,17.1 -7.9,23.3 -25.7,23.3 h -14 v 18.6 h -18.7 v -69.7 z m 31.8,35.6 c 6.1,0 7.6,-1.6 7.6,-8.2 v -4 c 0,-5.6 -2.3,-7.7 -8.3,-7.7 h -12.3 v 19.9 h 13 z"
                 class="st0"
                 inkscape:connector-curvature="0"
                 style="fill:#1a1a1a" />
              <path
                 id="path3000"
                 d="m 443.97975,373.37975 h 18.9 v 69.7 h -18.9 v -69.7 z"
                 class="st0"
                 inkscape:connector-curvature="0"
                 style="fill:#1a1a1a" />
            </g>
            <g
               transform="translate(25.604215,420.80474)"
               id="g3002">
              <path
                 id="path3004"
                 d="m 497.8,395.5 c 0,-8.9 1.8,-15.1 5.5,-18.6 3.7,-3.5 10.2,-5.3 19.6,-5.3 h 8.8 c 8.6,0 14.9,1.5 19,4.4 4.1,2.9 6.1,7.5 6.1,13.6 v 3 h -8 v -0.8 c 0,-4.8 -1.2,-8.2 -3.7,-10 -2.4,-1.9 -7.1,-2.8 -14,-2.8 H 525 c -4.8,0 -8.2,0.3 -10.3,0.8 -2.1,0.5 -3.9,1.4 -5.3,2.7 -1.3,1.2 -2.3,2.7 -2.8,4.6 -0.5,1.9 -0.8,5.4 -0.8,10.4 v 19.9 c 0,5 0.3,8.5 0.8,10.4 0.5,1.9 1.5,3.5 2.8,4.6 1.5,1.2 3.2,2.1 5.2,2.7 2,0.5 5.5,0.8 10.4,0.8 h 6.1 c 4.4,0 7.6,-0.2 9.4,-0.7 1.8,-0.5 3.4,-1.3 4.8,-2.4 1.2,-1.1 2.1,-2.5 2.6,-4.4 0.5,-1.8 0.8,-5 0.8,-9.5 v -4.3 h -19.3 v -7.1 h 27.3 v 11.7 c 0,8.9 -1.8,15.1 -5.5,18.6 -3.7,3.5 -10.2,5.2 -19.6,5.2 h -8.8 c -9.4,0 -15.9,-1.7 -19.6,-5.2 -3.7,-3.5 -5.5,-9.7 -5.5,-18.6 l 0.1,-23.7 0,0 z"
                 class="st4"
                 inkscape:connector-curvature="0"
                 style="fill:#666666" />
              <path
                 id="path3006"
                 d="m 563.5,442.2 25.8,-69.7 H 602 l 25.9,69.7 h -8 l -6.6,-17.8 H 578 l -6.5,17.8 h -8 z m 17,-24.8 h 30.2 l -13.9,-37.6 h -2.5 l -13.8,37.6 z"
                 class="st4"
                 inkscape:connector-curvature="0"
                 style="fill:#666666" />
              <path
                 id="path3008"
                 d="m 637.2,442.2 v -69.7 h 31.5 c 7.8,0 13.2,1.2 16.2,3.5 3,2.3 4.4,6.5 4.4,12.4 v 10.5 c 0,3.7 -0.7,6.5 -2.2,8.6 -1.5,2.1 -3.7,3.4 -6.8,3.9 3.3,0.8 5.6,2.2 7,4.3 1.3,2.1 2,5.3 2,9.7 v 16.8 h -8.1 v -14.4 c 0,-5 -0.8,-8.4 -2.4,-10.1 -1.6,-1.8 -4.7,-2.6 -9.2,-2.6 h -24.7 v 27.2 l -7.7,-0.1 0,0 z m 29.9,-62.4 h -22.2 v 27.9 h 22.2 c 5.8,0 9.6,-0.7 11.4,-2.2 1.8,-1.4 2.7,-4 2.7,-7.7 v -8.1 c 0,-3.8 -0.9,-6.4 -2.6,-7.8 -1.8,-1.4 -5.6,-2.1 -11.5,-2.1 z"
                 class="st4"
                 inkscape:connector-curvature="0"
                 style="fill:#666666" />
              <path
                 id="path3010"
                 d="m 696.9,442.2 25.8,-69.7 h 12.7 l 25.9,69.7 h -8 l -6.6,-17.8 h -35.3 l -6.5,17.8 h -8 z m 17,-24.8 h 30.2 l -13.9,-37.6 h -2.5 l -13.8,37.6 z"
                 class="st4"
                 inkscape:connector-curvature="0"
                 style="fill:#666666" />
              <path
                 id="path3012"
                 d="m 767.9,395.5 c 0,-8.9 1.8,-15.1 5.5,-18.6 3.7,-3.5 10.2,-5.3 19.6,-5.3 h 8.9 c 8.6,0 14.9,1.5 19,4.4 4.1,2.9 6.1,7.5 6.1,13.6 v 3 h -8 v -0.8 c 0,-4.8 -1.2,-8.2 -3.7,-10 -2.4,-1.9 -7.1,-2.8 -14,-2.8 h -6.1 c -4.8,0 -8.2,0.3 -10.3,0.8 -2.1,0.5 -3.9,1.4 -5.3,2.7 -1.3,1.2 -2.3,2.7 -2.8,4.6 -0.5,1.9 -0.8,5.4 -0.8,10.4 v 19.9 c 0,5 0.3,8.5 0.8,10.4 0.5,1.9 1.5,3.5 2.8,4.6 1.5,1.2 3.2,2.1 5.2,2.7 2,0.5 5.5,0.8 10.4,0.8 h 6.1 c 4.4,0 7.6,-0.2 9.4,-0.7 1.8,-0.5 3.4,-1.3 4.8,-2.4 1.2,-1.1 2.1,-2.5 2.6,-4.4 0.5,-1.8 0.8,-5 0.8,-9.5 v -4.3 h -19.3 v -7.1 h 27.3 v 11.7 c 0,8.9 -1.8,15.1 -5.5,18.6 -3.7,3.5 -10.2,5.2 -19.6,5.2 H 793 c -9.4,0 -15.9,-1.7 -19.6,-5.2 -3.7,-3.5 -5.5,-9.7 -5.5,-18.6 v -23.7 z"
                 class="st4"
                 inkscape:connector-curvature="0"
                 style="fill:#666666" />
              <path
                 id="path3014"
                 d="m 840.9,442.2 v -69.7 h 48.9 v 7.4 h -41.2 v 22.8 h 40 v 7.1 h -40 v 25.1 h 41.2 v 7.3 h -48.9 l 0,0 z"
                 class="st4"
                 inkscape:connector-curvature="0"
                 style="fill:#666666" />
            </g>
            <g
               transform="matrix(0.61725997,0,0,0.61725997,177.20772,555.66923)"
               id="g3066">
              <g
                 id="g3068">
                <path
                   id="path3070"
                   d="M 205.6,434 171.3,375.2 C 168.9,371 162.9,368 158.1,368 H 89.4 c -4.8,0 -10.8,3 -13.2,7.2 l -34.3,59.1 c -2.4,4.2 -2.4,10.9 0,15.1 l 34.3,59.1 c 2.4,4.2 8.4,7.5 13.2,7.5 h 24.3 L 95.3,482.8 c -0.2,-0.2 -0.3,-0.4 -0.5,-0.6 L 74,446.3 c -1.5,-2.5 -1.5,-6.7 0,-9.2 l 20.8,-35.2 c 1.5,-2.5 5.1,-3.8 8,-3.8 h 41.6 c 2.9,0 6.5,1.3 8,3.8 l 20.8,35.6 c 1.5,2.5 1.5,6.5 0,9.1 L 152.4,482 c -1.5,2.5 -5.1,4.1 -8,4.1 H 127 l 16.2,30 h 14.9 c 4.8,0 10.8,-3.3 13.2,-7.5 l 34.3,-59.2 c 2.4,-4.4 2.4,-11.2 0,-15.4 z"
                   class="st2"
                   inkscape:connector-curvature="0"
                   style="fill:#fac51c" />
              </g>
              <g
                 id="g3072">
                <circle
                   id="circle3074"
                   r="21.299999"
                   cy="441.89999"
                   cx="123.5"
                   class="st2"
                   sodipodi:cx="123.5"
                   sodipodi:cy="441.89999"
                   sodipodi:rx="21.299999"
                   sodipodi:ry="21.299999"
                   style="fill:#fac51c"
                   d="m 144.8,441.89999 c 0,11.76367 -9.53634,21.3 -21.3,21.3 -11.76366,0 -21.3,-9.53633 -21.3,-21.3 0,-11.76366 9.53634,-21.3 21.3,-21.3 11.76366,0 21.3,9.53634 21.3,21.3 z" />
              </g>
            </g>
          </g>
        </g>
      </g>
    </g>
  </g>
  <style
     id="style2986"
     type="text/css">
	.st0{fill:#1A1A1A;}
	.st1{opacity:0.5;fill:none;stroke:#B3B3B3;stroke-width:4;stroke-miterlimit:10;enable-background:new    ;}
	.st2{fill:#FAC51C;}
	.st3{fill:#FFFFFF;}
	.st4{fill:#666666;}
	.st5{fill:#CCCCCC;}
</style>
</svg>
