<?xml version="1.0" encoding="UTF-8" standalone="no"?>
<!-- Created with Inkscape (http://www.inkscape.org/) -->

<svg
   xmlns:dc="http://purl.org/dc/elements/1.1/"
   xmlns:cc="http://creativecommons.org/ns#"
   xmlns:rdf="http://www.w3.org/1999/02/22-rdf-syntax-ns#"
   xmlns:svg="http://www.w3.org/2000/svg"
   xmlns="http://www.w3.org/2000/svg"
   xmlns:sodipodi="http://sodipodi.sourceforge.net/DTD/sodipodi-0.dtd"
   xmlns:inkscape="http://www.inkscape.org/namespaces/inkscape"
   width="280"
   height="280"
   id="svg2"
   version="1.1"
   inkscape:version="0.48.4 r9939"
   sodipodi:docname="icon-only.svg">
  <defs
     id="defs4" />
  <sodipodi:namedview
     id="base"
     pagecolor="#ffffff"
     bordercolor="#666666"
     borderopacity="1.0"
     inkscape:pageopacity="0.0"
     inkscape:pageshadow="2"
     inkscape:zoom="0.98994949"
     inkscape:cx="379.86968"
     inkscape:cy="163.51031"
     inkscape:document-units="px"
     inkscape:current-layer="g2992"
     showgrid="false"
     inkscape:window-width="1680"
     inkscape:window-height="1029"
     inkscape:window-x="1600"
     inkscape:window-y="21"
     inkscape:window-maximized="1"
     width="128px" />
  <metadata
     id="metadata7">
    <rdf:RDF>
      <cc:Work
         rdf:about="">
        <dc:format>image/svg+xml</dc:format>
        <dc:type
           rdf:resource="http://purl.org/dc/dcmitype/StillImage" />
        <dc:title></dc:title>
      </cc:Work>
    </rdf:RDF>
  </metadata>
  <g
     inkscape:label="Layer 1"
     inkscape:groupmode="layer"
     id="layer1"
     transform="translate(0,-772.3622)">
    <g
       id="g2988"
       transform="translate(-33.907143,74.690754)">
      <g
         id="g2990">
        <g
           transform="translate(-307.7147,559.34145)"
           id="g2992"
           inkscape:transform-center-x="-119.198"
           inkscape:transform-center-y="87.883271">
          <g
             id="g2994"
             transform="translate(2.0203051,-6.0609153)">
            <path
               id="path2996"
               d="M 614.3,273.5 558,175.9 C 554,169 544.3,163 536.3,163 H 423.7 c -8,0 -17.7,6 -21.7,12.9 l -56.3,97.4 c -4,6.9 -4,18.2 0,25.1 l 56.3,97.7 c 4,6.9 13.7,12.9 21.7,12.9 h 39.9 l -30.1,-55 c -0.3,-0.4 -0.5,-0.9 -0.7,-1.3 l -34.1,-59.1 c -2.4,-4.2 -2.4,-11 0,-15.2 l 34.1,-58.9 c 2.4,-4.2 8.3,-7.5 13.2,-7.5 h 68.3 c 4.8,0 10.7,3.3 13.2,7.5 l 34.1,58.9 c 2.4,4.2 2.4,11 0,15.2 l -34.1,58.9 c -2.4,4.2 -8.3,7.5 -13.2,7.5 h -28.8 l 26.6,49 h 24.4 c 8,0 17.7,-6 21.7,-12.9 l 56.3,-97.4 c 3.8,-6.9 3.8,-18.3 -0.2,-25.2 z"
               class="st0"
               inkscape:connector-curvature="0"
               style="fill:#ffffff" />
          </g>
          <g
             id="g2998">
            <circle
               id="circle3000"
               r="34.900002"
               cy="286.39999"
               cx="479.60001"
               class="st0"
               sodipodi:cx="479.60001"
               sodipodi:cy="286.39999"
               sodipodi:rx="34.900002"
               sodipodi:ry="34.900002"
               style="fill:#ffffff"
               d="m 514.50001,286.39999 c 0,19.27474 -15.62527,34.90001 -34.9,34.90001 -19.27474,0 -34.90001,-15.62527 -34.90001,-34.90001 0,-19.27473 15.62527,-34.9 34.90001,-34.9 19.27473,0 34.9,15.62527 34.9,34.9 z" />
          </g>
        </g>
      </g>
    </g>
  </g>
  <style
     id="style2986"
     type="text/css">
	.st0{fill:#FFFFFF;}
</style>
</svg>
